<svg version="1.1" id="_x3C_Layer_x3E_" xmlns="http://www.w3.org/2000/svg" xmlns:xlink="http://www.w3.org/1999/xlink" x="0px"
	 y="0px" viewBox="0 0 3000 2000" style="enable-background:new 0 0 3000 2000;" xml:space="preserve">
<rect style="fill:#FFFFFF;" width="3000" height="2000"/>
<g>
	<defs>
		<path id="SVGID_1_" d="M2049.115,1814.704c-475.004,34.829-1211.698,64.021-1525.289-21.661
			c-339.681-92.81-298.674-423.214-194.721-634.694c105.138-213.89-170.849-627.333,272.798-867.076
			c255.179-137.896,484.054,82.774,925.196-80.135c398.277-147.079,912.033-15.523,1037.666,292.944
			c86.425,212.201-22.526,440.946,86.425,551.818c127.494,129.743,120.699,400.501,6.836,573.328
			C2550.304,1792.736,2457.4,1784.767,2049.115,1814.704z"/>
	</defs>
	<clipPath id="SVGID_00000049218279867077675640000015591759101913274021_">
		<use xlink:href="#SVGID_1_"  style="overflow:visible;"/>
	</clipPath>
	<g style="clip-path:url(#SVGID_00000049218279867077675640000015591759101913274021_);">
		<g>
			<path style="fill:#DAE6FF;" d="M2049.115,1814.704c-475.004,34.829-1211.698,64.021-1525.289-21.661
				c-339.681-92.81-298.674-423.214-194.721-634.694c105.138-213.89-170.849-627.333,272.798-867.076
				c255.179-137.896,484.054,82.774,925.196-80.135c398.277-147.079,912.033-15.523,1037.666,292.944
				c86.425,212.201-22.526,440.946,86.425,551.818c127.494,129.743,120.699,400.501,6.836,573.328
				C2550.304,1792.736,2457.4,1784.767,2049.115,1814.704z"/>
		</g>
	</g>
	<polygon style="clip-path:url(#SVGID_00000049218279867077675640000015591759101913274021_);fill:#B8D0FC;" points="
		1726.348,412.338 904.903,642.565 1217.076,1717.062 2034.249,1458.857 	"/>
	<g style="clip-path:url(#SVGID_00000049218279867077675640000015591759101913274021_);">
		<g>
			<g>
				
					<rect x="1071.331" y="505.759" transform="matrix(0.9591 -0.2831 0.2831 0.9591 -237.0838 463.1387)" style="fill:#E5EDFF;" width="825.187" height="1092.248"/>
			</g>
		</g>
		<g>
			<g>
				<g>
					<path style="fill:#B8D0FC;" d="M1320.802,973.07l-204.552,60.38c-0.153,0.045-0.314-0.043-0.359-0.196l-3.912-13.254
						c-0.045-0.152,0.043-0.313,0.195-0.358l204.553-60.38c0.153-0.045,0.314,0.043,0.359,0.195l3.912,13.253
						C1321.043,972.864,1320.955,973.025,1320.802,973.07z"/>
				</g>
				<g>
					<path style="fill:#B8D0FC;" d="M1638.838,879.192l-286.329,84.519c-0.181,0.053-0.372-0.051-0.425-0.231l-3.882-13.153
						c-0.053-0.18,0.051-0.37,0.23-0.424l286.33-84.519c0.18-0.053,0.372,0.051,0.425,0.231l3.882,13.152
						C1639.123,878.948,1639.019,879.139,1638.838,879.192z"/>
				</g>
			</g>
			<g>
				<g>
					<path style="fill:#B8D0FC;" d="M1758.776,754.329l-666.505,196.739c-0.324,0.096-0.667-0.091-0.762-0.415l-3.729-12.633
						c-0.095-0.324,0.091-0.666,0.415-0.762l666.505-196.739c0.323-0.096,0.666,0.091,0.762,0.415l3.729,12.633
						C1759.286,753.891,1759.099,754.234,1758.776,754.329z"/>
				</g>
				<g>
					<path style="fill:#B8D0FC;" d="M1703.529,813.11l-599.756,177.036c-0.307,0.091-0.632-0.086-0.723-0.393l-3.747-12.693
						c-0.091-0.307,0.086-0.632,0.393-0.723L1699.453,799.3c0.307-0.091,0.632,0.086,0.723,0.393l3.747,12.693
						C1704.013,812.694,1703.836,813.019,1703.529,813.11z"/>
				</g>
				<g>
					<path style="fill:#B8D0FC;" d="M1729.315,900.468l-599.756,177.036c-0.307,0.091-0.632-0.086-0.723-0.393l-3.747-12.693
						c-0.091-0.307,0.086-0.632,0.393-0.723l599.756-177.036c0.307-0.091,0.632,0.086,0.723,0.393l3.747,12.693
						C1729.799,900.052,1729.622,900.377,1729.315,900.468z"/>
				</g>
				<g>
					<path style="fill:#B8D0FC;" d="M1284.849,851.269l-204.552,60.38c-0.153,0.045-0.314-0.043-0.359-0.195l-3.912-13.254
						c-0.045-0.152,0.043-0.313,0.195-0.358l204.553-60.38c0.153-0.045,0.314,0.043,0.359,0.195l3.912,13.253
						C1285.089,851.062,1285.001,851.224,1284.849,851.269z"/>
				</g>
				<g>
					<path style="fill:#B8D0FC;" d="M1602.885,757.391l-286.329,84.519c-0.181,0.053-0.372-0.051-0.425-0.231l-3.882-13.153
						c-0.053-0.18,0.05-0.37,0.23-0.423l286.33-84.519c0.181-0.053,0.372,0.051,0.425,0.231l3.882,13.152
						C1603.169,757.146,1603.065,757.338,1602.885,757.391z"/>
				</g>
			</g>
		</g>
		<g>
			<path style="fill:#89ADFF;" d="M1196.695,746.143c0.74,3.392,0.894,6.665,0.459,9.819c-0.435,3.154-1.467,6.053-3.093,8.697
				c-1.628,2.644-3.854,4.992-6.679,7.046c-2.826,2.054-6.258,3.677-10.298,4.87c-4.19,1.237-8.167,1.622-11.932,1.155
				c-3.766-0.466-7.209-1.718-10.332-3.757c-3.123-2.038-5.877-4.811-8.263-8.321c-2.386-3.508-4.289-7.671-5.712-12.489
				l-1.272-4.309c-1.422-4.818-2.064-9.362-1.925-13.632c0.138-4.269,0.98-8.113,2.525-11.53c1.545-3.416,3.777-6.352,6.696-8.808
				c2.918-2.455,6.443-4.293,10.572-5.512c4.069-1.201,7.838-1.687,11.305-1.459c3.467,0.229,6.595,1.047,9.385,2.451
				c2.789,1.405,5.214,3.341,7.277,5.806c2.061,2.466,3.747,5.311,5.057,8.535L1177,728.68c-0.724-1.901-1.569-3.522-2.534-4.864
				c-0.966-1.341-2.092-2.375-3.38-3.101c-1.287-0.725-2.787-1.121-4.498-1.185c-1.711-0.064-3.673,0.23-5.887,0.884
				c-4.549,1.343-7.45,3.997-8.703,7.961c-1.253,3.965-0.855,9.419,1.194,16.36l1.299,4.399c0.998,3.382,2.12,6.271,3.364,8.669
				c1.245,2.398,2.649,4.293,4.215,5.685c1.565,1.393,3.32,2.265,5.263,2.619c1.942,0.354,4.11,0.177,6.505-0.53
				c2.124-0.627,3.886-1.407,5.286-2.341c1.4-0.933,2.473-2.039,3.217-3.316c0.745-1.277,1.186-2.733,1.322-4.367
				c0.135-1.633-0.009-3.445-0.433-5.435L1196.695,746.143z"/>
			<path style="fill:#89ADFF;" d="M1256.439,718.26c1.475,4.998,2.125,9.677,1.949,14.04c-0.176,4.363-1.078,8.281-2.704,11.753
				c-1.627,3.474-3.926,6.454-6.901,8.942c-2.974,2.489-6.511,4.337-10.611,5.547c-4.1,1.21-8.073,1.578-11.922,1.104
				c-3.848-0.474-7.413-1.723-10.695-3.748c-3.281-2.024-6.196-4.815-8.742-8.374c-2.547-3.558-4.558-7.836-6.033-12.834
				l-0.848-2.873c-1.466-4.967-2.106-9.641-1.919-14.023c0.186-4.381,1.096-8.327,2.728-11.834c1.632-3.507,3.936-6.505,6.91-8.993
				c2.974-2.488,6.511-4.337,10.611-5.547c4.099-1.21,8.074-1.578,11.922-1.104c3.848,0.475,7.41,1.741,10.685,3.8
				c3.275,2.059,6.181,4.878,8.718,8.455c2.536,3.578,4.537,7.851,6.003,12.818L1256.439,718.26z M1241.919,719.326
				c-2.022-6.852-4.787-11.697-8.291-14.534c-3.505-2.836-7.532-3.584-12.08-2.241c-4.549,1.343-7.524,4.157-8.927,8.442
				c-1.403,4.286-1.093,9.855,0.93,16.707l0.874,2.962c1.007,3.412,2.218,6.332,3.635,8.76c1.416,2.429,2.993,4.355,4.73,5.777
				c1.737,1.423,3.623,2.33,5.659,2.721c2.035,0.392,4.189,0.252,6.464-0.42c4.548-1.342,7.505-4.167,8.869-8.473
				c1.364-4.306,1.034-9.885-0.989-16.738L1241.919,719.326z"/>
			<path style="fill:#89ADFF;" d="M1328.578,730.88l-13.466,3.975l-38.906-35.263l12.693,43.001l-13.466,3.975l-19.291-65.354
				l13.466-3.975l38.977,35.34l-12.719-43.091l13.421-3.962L1328.578,730.88z"/>
			<path style="fill:#89ADFF;" d="M1372.16,658.825l-20.019,5.909l16.072,54.447l-13.466,3.975l-16.072-54.447l-19.75,5.83
				l-3.22-10.907l53.235-15.714L1372.16,658.825z"/>
			<path style="fill:#89ADFF;" d="M1413.039,679.94l-10.728,3.167l7.062,23.924l-13.466,3.975l-19.291-65.354l24.283-7.168
				c3.77-1.113,7.277-1.684,10.522-1.715c3.244-0.03,6.144,0.48,8.698,1.531c2.555,1.051,4.748,2.641,6.58,4.767
				c1.831,2.127,3.224,4.806,4.178,8.038c0.707,2.394,1.07,4.621,1.093,6.679c0.022,2.06-0.257,3.98-0.837,5.761
				c-0.58,1.782-1.425,3.439-2.535,4.969c-1.11,1.531-2.443,2.966-4,4.303l22.022,22.534l0.186,0.628l-14.453,4.266L1413.039,679.94
				z M1399.092,672.2l10.862-3.206c1.765-0.521,3.245-1.21,4.441-2.067c1.194-0.857,2.107-1.842,2.738-2.955
				c0.63-1.113,0.997-2.327,1.097-3.642c0.099-1.314-0.067-2.704-0.499-4.171c-0.91-3.082-2.501-5.247-4.772-6.496
				c-2.272-1.249-5.219-1.339-8.839-0.27l-10.817,3.193L1399.092,672.2z"/>
			<path style="fill:#89ADFF;" d="M1487.494,669.332l-23.609,6.969l-0.514,14.791l-14.318,4.227l5.037-72.536l12.478-3.683
				l43.754,58.133l-14.318,4.226L1487.494,669.332z M1464.301,664.32l16.339-4.823l-15.436-22.038L1464.301,664.32z"/>
			<path style="fill:#89ADFF;" d="M1560.363,638.795c0.74,3.392,0.894,6.666,0.459,9.819c-0.435,3.154-1.467,6.053-3.094,8.697
				c-1.627,2.644-3.853,4.992-6.679,7.046c-2.826,2.054-6.258,3.677-10.298,4.87c-4.19,1.237-8.167,1.622-11.932,1.155
				c-3.765-0.466-7.209-1.718-10.331-3.758c-3.123-2.038-5.878-4.811-8.263-8.321c-2.386-3.508-4.29-7.671-5.712-12.489
				l-1.272-4.309c-1.422-4.818-2.064-9.362-1.925-13.632c0.138-4.269,0.98-8.113,2.525-11.53c1.545-3.416,3.777-6.352,6.696-8.808
				c2.918-2.455,6.443-4.293,10.573-5.512c4.069-1.201,7.838-1.687,11.305-1.458c3.467,0.229,6.595,1.047,9.384,2.451
				c2.79,1.405,5.215,3.34,7.277,5.806c2.061,2.466,3.746,5.311,5.057,8.536l-13.466,3.975c-0.723-1.901-1.568-3.522-2.534-4.864
				c-0.965-1.341-2.091-2.375-3.38-3.101c-1.288-0.725-2.787-1.121-4.497-1.185c-1.711-0.064-3.674,0.23-5.887,0.884
				c-4.549,1.343-7.45,3.997-8.703,7.961c-1.254,3.965-0.855,9.419,1.194,16.36l1.298,4.399c0.998,3.382,2.119,6.271,3.364,8.669
				c1.245,2.398,2.649,4.293,4.215,5.685c1.566,1.392,3.321,2.265,5.263,2.619c1.942,0.353,4.11,0.177,6.504-0.53
				c2.125-0.627,3.887-1.407,5.287-2.341c1.399-0.933,2.472-2.039,3.217-3.316c0.746-1.277,1.186-2.733,1.321-4.367
				c0.136-1.634-0.009-3.445-0.433-5.435L1560.363,638.795z"/>
			<path style="fill:#89ADFF;" d="M1607.453,589.371l-20.019,5.909l16.072,54.447l-13.466,3.975l-16.072-54.447l-19.75,5.83
				l-3.22-10.908l53.235-15.714L1607.453,589.371z"/>
		</g>
	</g>
	<g style="clip-path:url(#SVGID_00000049218279867077675640000015591759101913274021_);">
		<g>
			<path style="fill:#E96F5F;" d="M2046.018,1006.695c0,0-35.744,66.685-59.032,78.069c-23.288,11.384-95.123,35.591-114.336,55.554
				c-5.981,6.214-49.081,57.737-47.156,76.029c1.302,12.375,35.148,18.205,57.565-7.579c38.965-44.821,76.796-49.736,102.299-55.843
				c43.499-10.417,67.481-19.431,51.126-7.486c0,0-55.588,29.277-76.247,47.187c-5.582,4.839-42.684,50.238-38.082,65.986
				c2.49,8.519,29.062,22.256,65.725-15.776c24.095-24.994,53.315-22.017,80.625-23.902c23.636-1.632,99.709,17.557,99.709,17.557
				l4.549-100.332L2046.018,1006.695z"/>
		</g>
		<g>
			<path style="fill:#FFA089;" d="M2316.611,1684.083c-10.394-25.908-20.28-50.169-29.095-71.286
				c-4.947-11.765-9.545-22.57-13.715-32.112c-6.75-15.407-12.379-27.552-16.493-35.308c-10.526-19.837-22.23-51.596-41.12-76.539
				l-0.018-0.013c-12.775-16.896-28.845-30.647-50.089-35.482c-52.636-11.993-152.994-96.537-221.21-175.539
				c-37.218-43.072-94.836-84.862-117.902-99.736c-18.146-11.696-94.927-50.851-102.69-68.267
				c-4.556-10.257,21.876-39.236,38.301-44.327c35.188-10.932,83.453,8.971,158.157,51.245
				c71.17,40.282,149.972,33.117,125.907-7.198c-63.437-106.274-295.021-16.865-323.002-67.935
				c-7.525-13.734,42.041-40.285,87.917-58.144c18.863-7.343,140.673-38.002,195.434-38.799
				c34.265-0.499,256.844,40.272,326.718,89.933c32.165,22.861,145.351,264.236,147.832,272.102l0.005,0.031
				c13.642,43.191,30.427,85.311,50.276,125.976c6.26,12.899,12.84,25.618,19.732,38.207c3.105,5.667,6.272,11.325,9.508,16.923
				C2477.896,1563.103,2396.127,1632.551,2316.611,1684.083z"/>
		</g>
		<g>
			<polygon style="fill:#7798F8;" points="2574.193,1437.015 2481.11,1285.976 2193.952,1474.613 2276.899,1619.315 			"/>
		</g>
		<g>
			<path style="fill:#100259;" d="M2250.594,1598.594c0,0,48.093,128.592,100.472,267.595
				c156.956,24.605,337.58,40.582,559.467,42.455c10.862,0.088,21.679-0.013,32.492-0.313l-381.847-511.997l-8.601,5.619
				l-9.166,5.974l-10.546,6.856l-0.023,0.016l-8.96,5.832l-0.007,0.039l-0.016-0.023l-249.107,162.225l-8.891,5.785l-0.02-0.003
				l-1.041,0.666l-3.718,2.408l-5.105,3.33l-0.046,0.031L2250.594,1598.594z"/>
		</g>
		<g>
			<path style="fill:#100259;" d="M2272.085,1503.83c5.234,4.428,5.887,12.261,1.459,17.495c-4.428,5.234-12.261,5.888-17.495,1.46
				c-5.234-4.428-5.887-12.261-1.459-17.495C2259.018,1500.055,2266.851,1499.402,2272.085,1503.83z"/>
		</g>
		<g>
			<g>
				<g>
					<g>
						<path style="fill:#FFA089;" d="M1342.757,1306.84c-6.44,10.793-21.122,22.843-36.668,33.097
							c-2.009,1.315-4.036,2.62-6.051,3.867c-14.604,9.094-29.156,16.267-37.694,19.083
							c-25.203,8.275-180.785,156.491-205.401,183.411c-20.529,22.422-83.02,84.233-103.213,104.153
							c-4.035,3.969-6.374,6.268-6.374,6.268l-253.533-90.266c0,0,3.122-6.988,7.629-17.476c8.72-20.292,22.54-53.676,28.661-74.821
							c9.325-32.05,3.09-198.378,8.059-245.737c4.942-47.352-24.16-267.929,18.791-272.393
							c42.925-4.498,43.076,229.799,67.955,222.855c24.862-6.953,45.79-330.675,101.263-329.964
							c61.953,0.767-21.327,290.449,3.666,291.482c24.966,1.041,85.129-334.224,152.781-314.586
							c51.496,14.939-76.344,328.348-47.137,336.012c29.215,7.648,128.117-251.607,182.945-232.397
							c38.669,13.524-26.003,138.732-59.403,240.293c-25.955,78.854-43.97,144.245-50.742,169.526
							c-1.039,3.914,3.526,6.982,7.013,4.742c136.401-87.815,204.928-77.119,226.854-56.571c1.1,1.019,1.961,2.106,2.609,3.255
							C1347.384,1295.344,1346.31,1300.909,1342.757,1306.84z"/>
					</g>
				</g>
			</g>
			<g>
				<path style="fill:#FCB7A9;" d="M927.061,897.459l-13.152-2.465c-3.867-0.725-6.412-4.354-5.657-8.066l3.564-17.52
					c1.422-6.991,8.545-11.595,15.828-10.229l0,0c7.284,1.365,12.079,8.202,10.657,15.194l-3.705,18.217
					C933.918,895.917,930.528,898.109,927.061,897.459z"/>
			</g>
			<g>
				<path style="fill:#FCB7A9;" d="M1072.232,874.568l-14.77-4.913c-4.342-1.445-6.664-6.037-5.159-10.205l4.963-13.747
					c2.834-7.852,11.846-12.05,20.026-9.328l0,0c8.179,2.721,12.553,11.371,9.718,19.222l-5.245,14.53
					C1080.415,873.865,1076.125,875.863,1072.232,874.568z"/>
			</g>
			<g>
				<path style="fill:#FCB7A9;" d="M1202.739,979.125l-13.76-7.12c-4.046-2.093-5.571-6.983-3.391-10.866l7.192-12.807
					c4.108-7.314,13.703-10.073,21.323-6.13l0,0c7.62,3.943,10.494,13.154,6.386,20.468l-7.602,13.537
					C1210.933,979.689,1206.366,981.002,1202.739,979.125z"/>
			</g>
			<g>
				<path style="fill:#FCB7A9;" d="M1342.757,1306.84c-6.44,10.793-21.122,22.843-36.668,33.097l-7.266-8.896
					c-3.186-3.896-2.468-9.581,1.59-12.639l18.194-13.699C1325.968,1299.137,1336.631,1300.16,1342.757,1306.84z"/>
			</g>
			<g>
				<path style="fill:#FCB7A9;" d="M766.031,997.956l-12.073,0.339c-3.518,0.099-6.48-2.584-6.583-5.961l-0.439-14.417
					c-0.194-6.362,5.071-11.719,11.699-11.905l0.105-0.003c6.627-0.186,12.208,4.868,12.401,11.229l0.458,15.051
					C771.691,995.318,769.186,997.867,766.031,997.956z"/>
			</g>
		</g>
		<g>
			<polygon style="fill:#7798F8;" points="640.181,1640.095 709.91,1476.955 1021.802,1621.063 961.16,1776.438 			"/>
		</g>
		<g>
			<path style="fill:#100259;" d="M984.112,1752.056c0,0-28.552,134.289-59.805,279.508
				c-151.594,47.54-327.87,90.046-547.042,124.703c-10.729,1.693-21.442,3.193-32.181,4.495l301.954-562.825l9.338,4.285
				l9.948,4.553l11.444,5.222l0.025,0.012l9.724,4.443l0.013,0.037l0.012-0.025l270.354,123.613l9.649,4.406l0.019-0.006
				l1.128,0.505l4.033,1.832l5.541,2.538l0.05,0.024L984.112,1752.056z"/>
		</g>
		<g>
			<path style="fill:#100259;" d="M948.847,1661.51c-4.522,5.153-4.01,12.996,1.143,17.518c5.153,4.522,12.996,4.01,17.518-1.143
				c4.522-5.153,4.01-12.996-1.143-17.518C961.212,1655.845,953.369,1656.357,948.847,1661.51z"/>
		</g>
		<g>
			<g>
				<polygon style="fill:#FB4848;" points="1663.208,1036.764 1663.692,1101.516 2478.574,1134.592 2482.987,976.71 				"/>
			</g>
			<g>
				<path style="fill:#100259;" d="M1619.939,1081.501l39.349,19.274l3.919-64.01l-43.741,23.951
					C1611.14,1065.274,1611.414,1077.325,1619.939,1081.501z"/>
			</g>
			<g>
				
					<ellipse transform="matrix(0.0496 -0.9988 0.9988 0.0496 1305.1195 3482.7051)" style="fill:#100259;" cx="2482.495" cy="1055.597" rx="79.092" ry="57.577"/>
			</g>
			<g>
				<path style="fill:#FB4848;" d="M2466.089,1050.977c-1.042,20.982,10.497,38.606,25.771,39.365
					c15.275,0.758,28.501-15.636,29.543-36.619c1.041-20.982-10.497-38.606-25.772-39.365
					C2480.358,1013.6,2467.131,1029.995,2466.089,1050.977z"/>
			</g>
			<g>
				<path style="fill:#FB4848;" d="M1641.266,1067.899c-0.889,17.907,9.077,32.954,22.259,33.609
					c13.182,0.654,24.59-13.332,25.478-31.239c0.889-17.907-9.077-32.954-22.259-33.609
					C1653.562,1036.005,1642.155,1049.991,1641.266,1067.899z"/>
			</g>
			<g>
				<polygon style="fill:#FB4848;" points="2561.044,1014.45 2495.632,1014.358 2491.321,1090.242 2556.733,1090.334 				"/>
			</g>
			<g>
				<path style="fill:#FF5B61;" d="M2535.143,1051.74c-1.042,20.982,10.497,38.607,25.771,39.365
					c15.275,0.758,28.501-15.637,29.543-36.619c1.042-20.982-10.497-38.607-25.771-39.365
					C2549.411,1014.363,2536.184,1030.758,2535.143,1051.74z"/>
			</g>
			<g>
				<path style="fill:#100259;" d="M2036.843,1094.614l337.215,9.393c4.936,0.137,9.035-3.781,9.12-8.718l0.3-17.395
					c0.087-5.043-4.041-9.144-9.083-9.025l-337.515,8.002c-5.179,0.123-9.152,4.637-8.616,9.789l0,0
					C2028.724,1091.089,2032.393,1094.49,2036.843,1094.614z"/>
			</g>
			<g>
				<path style="fill:#100259;" d="M2383.177,1095.289l5.984-31.765c0,0-1.204-11.699-11.963-12.187
					c-10.759-0.488-19.052-1.519-21.123,1.592c-2.071,3.111-3.034,16.446-3.034,16.446L2383.177,1095.289z"/>
			</g>
		</g>
		<g>
			<path style="fill:#FFA089;" d="M2144.254,1425.583c-55.405-25.292-139.694-98.669-199.394-167.77
				c-37.202-43.072-94.817-84.879-117.888-99.756c-18.143-11.674-94.938-50.837-102.703-68.255
				c-4.54-10.266,21.896-39.24,38.313-44.328c35.189-10.929,83.462,8.961,158.146,51.234
				c71.172,40.294,110.303,43.771,145.315,35.751c12.076-2.766,77.532,114.427,112.459,34.915
				c17.542-39.935,154.232-26.273,159.21,0.737C2378.918,1391.656,2144.254,1425.583,2144.254,1425.583z"/>
		</g>
	</g>
	<g style="clip-path:url(#SVGID_00000049218279867077675640000015591759101913274021_);">
		<g>
			<path style="fill:#2C2789;" d="M1690.859,1159.848c-2.88,0.852-5.135-0.109-6.308-0.835c-1.751-1.084-3.219-2.856-4.361-5.047
				c-2.333,3.353-5.265,6.186-8.863,7.803c-7.966,3.585-16.034,0.924-21.31-4.075c-1.957,1.727-4.181,3.436-6.685,5.09
				c-8.754,5.776-21.867,9.181-30.037-0.236c-0.444-0.513-0.851-1.038-1.222-1.574c-1.83,1.543-3.805,3.133-5.93,4.766
				c-15.742,12.101-31.846,13.809-43.08,4.569c-12.582-10.351-18.086-35.26-2.02-67.578c9.452-19.014,19.193-28.568,28.954-28.414
				c11.994,0.194,18.847,14.883,19.133,15.507l-4.168,1.907l2.084-0.954l-2.082,0.956c-0.06-0.127-5.951-12.698-15.054-12.834
				c-7.735-0.124-16.291,8.832-24.763,25.872c-14.945,30.062-10.353,52.799,0.829,61.997c9.469,7.791,23.444,6.047,37.374-4.661
				c2.426-1.864,4.618-3.644,6.603-5.343c-2.466-7.251,0.213-15.47,5.123-21.009c4.936-5.573,10.025-8.32,13.619-7.344
				c1.831,0.497,3.102,1.907,3.491,3.869c0.924,4.682-3.225,13.571-16.612,25.645c0.357,0.581,0.753,1.122,1.184,1.618
				c4.079,4.701,12.54,7.022,24.05-0.586c2.377-1.57,4.447-3.167,6.236-4.755c-0.035-0.052-0.071-0.105-0.106-0.156
				c-4.519-6.8-3.956-14.442,1.433-19.471c4.467-4.167,7.738-3.83,9.291-3.262c2.102,0.772,3.485,2.758,3.798,5.449
				c0.531,4.563-1.933,11.132-8.148,17.743c4.07,3.777,10.181,5.77,16.136,3.083c3.736-1.68,6.62-5.176,8.75-9.137
				c-1.404-5.981-0.996-13.053,1.716-18.164c0.698-1.318,2.34-4.411,4.933-3.925c1.052,0.197,2.374,0.996,2.696,3.693
				c0.411,3.434-0.9,11.584-4.471,18.947c0.883,2.827,2.244,5.092,3.89,6.111c2.768,1.711,5.867-1.446,7.976-4.401
				c9.475-13.271,16.52-18.997,23.583-19.137c5.09-0.102,9.826,2.76,14.475,8.751l-3.62,2.81c-3.7-4.766-7.221-7.05-10.764-6.978
				c-5.367,0.106-11.519,5.417-19.946,17.217C1695.825,1157.358,1693.146,1159.174,1690.859,1159.848z M1654.948,1135.683
				c-0.815,0.241-1.981,0.875-3.451,2.247c-4.223,3.939-3.399,9.179-1.115,12.99c5.145-5.655,6.852-10.816,6.526-13.626
				c-0.104-0.898-0.413-1.525-0.827-1.677C1655.859,1135.537,1655.478,1135.527,1654.948,1135.683z M1626.172,1132.955
				c-1.67,0.493-4.418,2.175-7.668,5.842c-4.392,4.955-5.5,10.2-4.688,14.532c12.115-11.251,14.268-18.162,13.874-20.157
				c-0.059-0.298-0.119-0.315-0.196-0.335C1627.198,1132.756,1626.749,1132.785,1626.172,1132.955z"/>
		</g>
	</g>
	<g style="clip-path:url(#SVGID_00000049218279867077675640000015591759101913274021_);">
		<path style="fill:#B8D0FC;" d="M1467.053,1137.901l-273.486,80.727c-0.242,0.071-0.499-0.068-0.57-0.31l-5.29-17.921
			c-0.071-0.242,0.068-0.499,0.31-0.57l273.486-80.727c0.242-0.072,0.499,0.068,0.57,0.31l5.29,17.921
			C1467.435,1137.573,1467.295,1137.83,1467.053,1137.901z"/>
	</g>
	<g style="clip-path:url(#SVGID_00000049218279867077675640000015591759101913274021_);">
		<path style="fill:#B8D0FC;" d="M1416.553,1203.811l-209.192,61.749c-0.212,0.063-0.436-0.06-0.499-0.271l-5.323-18.031
			c-0.063-0.212,0.06-0.436,0.271-0.499l209.192-61.749c0.212-0.063,0.436,0.06,0.499,0.271l5.322,18.031
			C1416.887,1203.525,1416.765,1203.749,1416.553,1203.811z"/>
	</g>
</g>
</svg>